<svg xmlns="http://www.w3.org/2000/svg" viewBox="0 0 24 24" role="img" aria-hidden="true">
  <path
    fill="#1f2430"
    d="M12 .5C5.65.5.5 5.65.5 12c0 5.08 3.29 9.38 7.86 10.9.58.1.79-.25.79-.56 0-.28-.01-1.2-.02-2.18-3.2.69-3.88-1.37-3.88-1.37-.52-1.33-1.28-1.68-1.28-1.68-1.04-.71.08-.7.08-.7 1.15.08 1.75 1.18 1.75 1.18 1.02 1.76 2.68 1.25 3.33.95.1-.74.4-1.25.72-1.53-2.55-.29-5.23-1.27-5.23-5.67 0-1.25.45-2.28 1.18-3.09-.12-.29-.51-1.46.11-3.04 0 0 .96-.31 3.15 1.18a10.9 10.9 0 0 1 5.73 0c2.18-1.49 3.14-1.18 3.14-1.18.63 1.58.24 2.75.12 3.04.73.81 1.18 1.84 1.18 3.09 0 4.41-2.68 5.38-5.24 5.67.41.35.77 1.03.77 2.07 0 1.5-.01 2.71-.01 3.08 0 .31.2.67.8.56A11.51 11.51 0 0 0 23.5 12C23.5 5.65 18.35.5 12 .5z"
  />
</svg>
